<?xml version="1.0" standalone="no"?>
<!DOCTYPE svg PUBLIC "-//W3C//DTD SVG 20010904//EN"
 "http://www.w3.org/TR/2001/REC-SVG-20010904/DTD/svg10.dtd">
<svg version="1.0" xmlns="http://www.w3.org/2000/svg"
 width="256.000000pt" height="256.000000pt" viewBox="0 0 256.000000 256.000000"
 preserveAspectRatio="xMidYMid meet">
<metadata>
Created by potrace 1.15, written by Peter Selinger 2001-2017
</metadata>
<g transform="translate(0.000000,256.000000) scale(0.100000,-0.100000)"
fill="#e50914" stroke="none">
<path d="M57 1613 c-4 -3 -7 -154 -7 -335 l0 -329 33 3 32 3 -4 245 c-2 138 0
241 5 237 5 -5 25 -112 44 -238 20 -126 39 -230 43 -229 4 0 30 0 57 0 l50 0
0 326 0 325 -31 -3 -30 -3 1 -252 c0 -139 -3 -253 -8 -253 -4 0 -24 110 -45
245 -20 135 -39 250 -42 255 -7 11 -88 14 -98 3z"/>
<path d="M540 1304 c0 -284 2 -316 16 -310 9 3 42 6 75 6 59 0 59 0 59 30 0
29 -2 30 -45 30 l-45 0 0 105 0 105 45 0 c43 0 45 1 45 30 0 29 -2 30 -45 30
l-45 0 0 109 0 110 43 3 c39 3 42 5 42 33 l0 30 -72 3 -73 3 0 -317z"/>
<path d="M867 1613 c-4 -3 -7 -19 -7 -35 0 -25 3 -28 35 -28 l35 0 0 -263 c0
-145 2 -266 5 -269 3 -2 18 -3 35 0 l30 4 0 264 0 264 35 0 c33 0 35 2 35 35
l0 35 -98 0 c-54 0 -102 -3 -105 -7z"/>
<path d="M1275 1608 c-3 -7 -4 -141 -3 -298 l3 -285 33 -3 32 -3 0 125 0 125
43 3 c38 3 42 6 45 31 3 26 2 27 -42 27 l-46 0 0 109 0 110 43 3 c39 3 42 5
42 33 l0 30 -73 3 c-52 2 -74 -1 -77 -10z"/>
<path d="M1647 1614 c-4 -4 -7 -139 -7 -299 l0 -292 31 -7 c17 -3 51 -6 75 -6
42 0 44 1 44 29 0 28 -3 30 -41 33 l-40 3 -2 270 -2 270 -25 3 c-14 2 -29 0
-33 -4z"/>
<path d="M1990 1311 l0 -311 30 0 30 0 -2 308 -3 307 -27 3 -28 3 0 -310z"/>
<path d="M2280 1604 c0 -9 12 -78 26 -152 l26 -135 -26 -161 c-15 -89 -26
-167 -26 -173 0 -8 13 -13 33 -13 l33 0 12 103 c7 56 16 118 19 137 6 33 7 34
13 10 4 -14 13 -78 20 -142 l13 -116 35 -7 c19 -3 36 -4 38 -2 4 4 -2 45 -40
279 -12 72 -11 86 15 220 16 79 28 149 29 156 0 7 -13 12 -34 12 -39 0 -38 3
-57 -135 -6 -49 -15 -94 -19 -98 -4 -4 -16 45 -26 110 l-19 118 -33 3 c-25 3
-32 -1 -32 -14z"/>
</g>
</svg>
